<?xml version="1.0" standalone="no"?>
<!DOCTYPE svg PUBLIC "-//W3C//DTD SVG 20010904//EN"
 "http://www.w3.org/TR/2001/REC-SVG-20010904/DTD/svg10.dtd">
<svg version="1.0" xmlns="http://www.w3.org/2000/svg"
 width="700.000000pt" height="700.000000pt" viewBox="0 0 700.000000 700.000000"
 preserveAspectRatio="xMidYMid meet">
<metadata>
Created by potrace 1.11, written by Peter Selinger 2001-2013
</metadata>
<g transform="translate(0.000000,700.000000) scale(0.100000,-0.100000)"
fill="#000000" stroke="none">
<path d="M3475 6233 c-67 -13 -86 -32 -324 -328 -329 -409 -574 -752 -836
-1166 -5 -9 -20 -34 -33 -55 -12 -22 -31 -52 -41 -69 -175 -288 -383 -699
-475 -943 -18 -48 -37 -96 -41 -107 -5 -11 -9 -22 -10 -25 -1 -3 -4 -12 -8
-20 -49 -123 -118 -391 -152 -585 -27 -156 -27 -518 0 -666 3 -13 7 -40 9 -59
5 -39 6 -45 36 -172 95 -408 316 -755 635 -997 91 -69 275 -181 298 -181 7 0
17 -4 23 -9 26 -26 350 -133 437 -145 18 -3 57 -10 87 -15 185 -36 578 -45
725 -17 11 2 43 7 70 10 28 4 73 11 100 16 28 6 59 12 70 14 106 20 269 75
392 132 29 13 62 29 75 34 13 6 32 16 43 23 11 7 46 27 78 45 127 74 310 235
416 367 31 39 59 72 62 75 18 15 138 228 174 310 55 124 105 280 131 405 26
129 31 167 41 273 10 102 10 381 0 457 -7 60 -8 69 -21 155 -34 220 -154 587
-298 910 -37 84 -194 394 -240 475 -60 106 -84 147 -109 193 -12 20 -27 44
-35 53 -8 8 -14 18 -14 22 0 30 -372 583 -583 866 -116 156 -431 556 -463 589
-7 7 -30 33 -50 58 -51 62 -108 88 -169 77z m1315 -3580 c58 -33 75 -76 74
-178 -1 -91 -22 -217 -50 -304 -69 -214 -223 -436 -384 -554 -30 -22 -57 -43
-60 -46 -7 -8 -34 -24 -110 -66 -150 -82 -329 -130 -497 -134 -89 -2 -95 -1
-137 28 -78 54 -94 160 -35 235 32 40 71 56 156 62 114 8 204 29 291 66 287
124 474 387 497 696 8 101 12 120 36 154 47 66 146 84 219 41z"/>
</g>
</svg>
